<svg width="224" height="50" viewBox="0 0 224 50" fill="none" xmlns="http://www.w3.org/2000/svg">
<path d="M30.0596 30V20.56H26.3476V18.8H35.8516V20.56H32.1396V30H30.0596ZM44.3776 25.776C44.3776 25.936 44.3616 26.176 44.3456 26.368H37.6416C37.8816 27.616 38.9216 28.416 40.4096 28.416C41.3696 28.416 42.1216 28.112 42.7296 27.488L43.8016 28.72C43.0336 29.632 41.8336 30.112 40.3616 30.112C37.4976 30.112 35.6416 28.272 35.6416 25.728C35.6416 23.184 37.5136 21.36 40.0576 21.36C42.5536 21.36 44.3776 23.104 44.3776 25.776ZM40.0576 22.96C38.7616 22.96 37.8176 23.792 37.6256 25.04H42.4736C42.3136 23.808 41.3696 22.96 40.0576 22.96ZM48.2027 22.704C48.7787 21.808 49.8187 21.36 51.2427 21.36V23.264C51.0667 23.232 50.9227 23.216 50.7787 23.216C49.2587 23.216 48.2987 24.112 48.2987 25.856V30H46.2987V21.456H48.2027V22.704ZM63.7233 21.36C65.7873 21.36 67.2273 22.528 67.2273 25.104V30H65.2273V25.36C65.2273 23.84 64.5233 23.104 63.3073 23.104C61.9953 23.104 61.0833 23.968 61.0833 25.664V30H59.0833V25.36C59.0833 23.84 58.3793 23.104 57.1633 23.104C55.8353 23.104 54.9393 23.968 54.9393 25.664V30H52.9393V21.456H54.8433V22.544C55.4833 21.776 56.4753 21.36 57.6433 21.36C58.8913 21.36 59.9313 21.824 60.5233 22.784C61.2113 21.904 62.3633 21.36 63.7233 21.36ZM70.7911 20.048C70.0551 20.048 69.5111 19.52 69.5111 18.848C69.5111 18.176 70.0551 17.648 70.7911 17.648C71.5271 17.648 72.0711 18.144 72.0711 18.8C72.0711 19.504 71.5431 20.048 70.7911 20.048ZM69.7831 30V21.456H71.7831V30H69.7831ZM79.2561 21.36C81.3041 21.36 82.8241 22.528 82.8241 25.104V30H80.8241V25.36C80.8241 23.84 80.0721 23.104 78.7921 23.104C77.3681 23.104 76.4081 23.968 76.4081 25.68V30H74.4081V21.456H76.3121V22.56C76.9681 21.776 78.0081 21.36 79.2561 21.36ZM86.3692 20.048C85.6332 20.048 85.0892 19.52 85.0892 18.848C85.0892 18.176 85.6332 17.648 86.3692 17.648C87.1052 17.648 87.6492 18.144 87.6492 18.8C87.6492 19.504 87.1212 20.048 86.3692 20.048ZM85.3612 30V21.456H87.3612V30H85.3612ZM104.104 28.88L103 30.176L101.592 28.816C100.584 29.68 99.3041 30.16 97.8321 30.16C95.4641 30.16 93.7521 28.928 93.7521 27.168C93.7521 25.776 94.5201 24.8 96.3441 23.776C95.4321 22.864 95.0961 22.128 95.0961 21.312C95.0961 19.744 96.3761 18.672 98.3441 18.672C100.152 18.672 101.336 19.616 101.336 21.136C101.336 22.288 100.664 23.12 99.0481 24.032L101.464 26.336C101.736 25.808 101.944 25.168 102.088 24.448L103.704 24.976C103.496 25.952 103.16 26.816 102.696 27.536L104.104 28.88ZM98.3441 20.096C97.4481 20.096 96.9201 20.592 96.9201 21.28C96.9201 21.776 97.1281 22.144 97.9281 22.944C99.2241 22.24 99.6401 21.776 99.6401 21.168C99.6401 20.528 99.1761 20.096 98.3441 20.096ZM97.9761 28.528C98.9041 28.528 99.7201 28.24 100.408 27.68L97.4481 24.848C96.1521 25.568 95.7041 26.16 95.7041 26.96C95.7041 27.888 96.6001 28.528 97.9761 28.528ZM115.503 30.16C112.079 30.16 109.519 27.744 109.519 24.4C109.519 21.056 112.079 18.64 115.519 18.64C117.343 18.64 118.911 19.296 119.951 20.512L118.607 21.776C117.791 20.896 116.783 20.464 115.615 20.464C113.295 20.464 111.615 22.096 111.615 24.4C111.615 26.704 113.295 28.336 115.615 28.336C116.783 28.336 117.791 27.904 118.607 27.008L119.951 28.288C118.911 29.504 117.343 30.16 115.503 30.16ZM125.279 30.112C122.655 30.112 120.735 28.288 120.735 25.728C120.735 23.168 122.655 21.36 125.279 21.36C127.935 21.36 129.839 23.168 129.839 25.728C129.839 28.288 127.935 30.112 125.279 30.112ZM125.279 28.4C126.735 28.4 127.823 27.36 127.823 25.728C127.823 24.096 126.735 23.056 125.279 23.056C123.839 23.056 122.751 24.096 122.751 25.728C122.751 27.36 123.839 28.4 125.279 28.4ZM136.6 21.36C138.648 21.36 140.168 22.528 140.168 25.104V30H138.168V25.36C138.168 23.84 137.416 23.104 136.136 23.104C134.712 23.104 133.752 23.968 133.752 25.68V30H131.752V21.456H133.656V22.56C134.312 21.776 135.352 21.36 136.6 21.36ZM149.151 18.128H151.151V30H149.231V28.896C148.559 29.712 147.567 30.112 146.399 30.112C143.919 30.112 142.079 28.384 142.079 25.728C142.079 23.072 143.919 21.36 146.399 21.36C147.503 21.36 148.479 21.728 149.151 22.512V18.128ZM146.639 28.4C148.079 28.4 149.183 27.36 149.183 25.728C149.183 24.096 148.079 23.056 146.639 23.056C145.199 23.056 144.095 24.096 144.095 25.728C144.095 27.36 145.199 28.4 146.639 28.4ZM154.775 20.048C154.039 20.048 153.495 19.52 153.495 18.848C153.495 18.176 154.039 17.648 154.775 17.648C155.511 17.648 156.055 18.144 156.055 18.8C156.055 19.504 155.527 20.048 154.775 20.048ZM153.767 30V21.456H155.767V30H153.767ZM160.232 28.4H165.064V30H157.688V28.736L162.376 23.056H157.784V21.456H164.936V22.72L160.232 28.4ZM167.916 20.048C167.18 20.048 166.636 19.52 166.636 18.848C166.636 18.176 167.18 17.648 167.916 17.648C168.652 17.648 169.196 18.144 169.196 18.8C169.196 19.504 168.668 20.048 167.916 20.048ZM166.908 30V21.456H168.908V30H166.908ZM175.373 30.112C172.749 30.112 170.829 28.288 170.829 25.728C170.829 23.168 172.749 21.36 175.373 21.36C178.029 21.36 179.933 23.168 179.933 25.728C179.933 28.288 178.029 30.112 175.373 30.112ZM175.373 28.4C176.829 28.4 177.917 27.36 177.917 25.728C177.917 24.096 176.829 23.056 175.373 23.056C173.933 23.056 172.845 24.096 172.845 25.728C172.845 27.36 173.933 28.4 175.373 28.4ZM186.694 21.36C188.742 21.36 190.262 22.528 190.262 25.104V30H188.262V25.36C188.262 23.84 187.51 23.104 186.23 23.104C184.806 23.104 183.846 23.968 183.846 25.68V30H181.846V21.456H183.75V22.56C184.406 21.776 185.446 21.36 186.694 21.36ZM193.807 20.048C193.071 20.048 192.527 19.52 192.527 18.848C192.527 18.176 193.071 17.648 193.807 17.648C194.543 17.648 195.087 18.144 195.087 18.8C195.087 19.504 194.559 20.048 193.807 20.048ZM192.799 30V21.456H194.799V30H192.799Z" fill="white"/>
<path d="M214.331 1H9.00003C4.58174 1 1.00001 4.58174 1.00003 9.00003L1.00008 24.4545L1.00003 41C1.00001 45.4183 4.58173 49 9.00002 49H214.328C218.772 49 222.365 45.3772 222.328 40.9327L222.198 25.5L222.33 9.06452C222.366 4.62117 218.774 1 214.331 1Z" stroke="white" stroke-width="2"/>
</svg>
