<svg width="162" height="26" viewBox="0 0 162 26" fill="none" xmlns="http://www.w3.org/2000/svg">
<path d="M23.0384 16V9.719H20.9264V8.586H26.5254V9.719H24.3914V16H23.0384ZM31.5457 11.611V12.711H28.7517V14.889H31.8757V16H27.3987V8.586H31.7107V9.697H28.7517V11.611H31.5457ZM33.0598 16V8.685C33.5658 8.597 34.3248 8.531 35.1058 8.531C36.1728 8.531 36.8988 8.707 37.3938 9.125C37.8008 9.466 38.0318 9.983 38.0318 10.61C38.0318 11.567 37.3828 12.216 36.6898 12.469V12.502C37.2178 12.7 37.5368 13.217 37.7238 13.932C37.9548 14.856 38.1528 15.714 38.3068 16H36.9098C36.7998 15.78 36.6238 15.175 36.4148 14.251C36.2058 13.283 35.8538 12.975 35.0838 12.953H34.4018V16H33.0598ZM34.4018 9.62V11.963H35.2048C36.1178 11.963 36.6898 11.479 36.6898 10.742C36.6898 9.928 36.1178 9.554 35.2378 9.554C34.8088 9.554 34.5338 9.587 34.4018 9.62ZM45.7245 16L45.5815 12.975C45.5375 12.018 45.4825 10.863 45.4935 9.862H45.4605C45.2185 10.764 44.9105 11.765 44.5805 12.7L43.5025 15.912H42.4575L41.4675 12.744C41.1815 11.798 40.9175 10.786 40.7195 9.862H40.6975C40.6645 10.83 40.6205 12.007 40.5655 13.019L40.4005 16H39.1355L39.6305 8.586H41.4125L42.3805 11.567C42.6445 12.436 42.8755 13.316 43.0625 14.141H43.0955C43.2935 13.338 43.5465 12.425 43.8325 11.556L44.8555 8.586H46.6155L47.0445 16H45.7245ZM48.0911 15.648L48.3881 14.526C48.8281 14.779 49.4881 14.999 50.1811 14.999C51.0501 14.999 51.5341 14.592 51.5341 13.987C51.5341 13.426 51.1601 13.096 50.2141 12.755C48.9931 12.315 48.2121 11.666 48.2121 10.599C48.2121 9.389 49.2241 8.465 50.8301 8.465C51.6331 8.465 52.2271 8.641 52.6121 8.839L52.2821 9.928C52.0181 9.785 51.5011 9.576 50.8081 9.576C49.9501 9.576 49.5761 10.038 49.5761 10.467C49.5761 11.039 50.0051 11.303 50.9951 11.688C52.2821 12.172 52.9091 12.821 52.9091 13.888C52.9091 15.076 52.0071 16.11 50.0931 16.11C49.3121 16.11 48.4981 15.89 48.0911 15.648ZM60.2416 13.899H57.8876L57.2496 16H55.8526L58.2286 8.586H59.9556L62.3646 16H60.9126L60.2416 13.899ZM58.1076 12.876H60.0106L59.4276 11.05C59.2846 10.599 59.1636 10.093 59.0536 9.664H59.0316C58.9216 10.093 58.8116 10.61 58.6796 11.05L58.1076 12.876ZM64.6387 16H63.3957V8.586H64.9357L66.8497 11.765C67.3447 12.59 67.7737 13.448 68.1147 14.251H68.1367C68.0487 13.261 68.0157 12.304 68.0157 11.171V8.586H69.2697V16H67.8727L65.9367 12.744C65.4637 11.93 64.9687 11.017 64.6057 10.181L64.5727 10.192C64.6277 11.149 64.6387 12.128 64.6387 13.349V16ZM70.8293 15.978V8.685C71.4233 8.586 72.1823 8.531 72.9853 8.531C74.3713 8.531 75.3283 8.817 76.0103 9.389C76.7253 9.972 77.1653 10.852 77.1653 12.117C77.1653 13.437 76.7143 14.427 76.0103 15.065C75.2733 15.736 74.0963 16.077 72.6553 16.077C71.8633 16.077 71.2693 16.033 70.8293 15.978ZM72.1823 9.664V14.966C72.3693 14.999 72.6553 14.999 72.9303 14.999C74.6903 15.01 75.7353 14.042 75.7353 12.161C75.7463 10.522 74.8003 9.587 73.1063 9.587C72.6773 9.587 72.3693 9.62 72.1823 9.664ZM85.7085 14.713L85.9285 15.78C85.6095 15.945 84.9055 16.11 84.0145 16.11C81.6605 16.11 80.2305 14.636 80.2305 12.381C80.2305 9.939 81.9245 8.465 84.1905 8.465C85.0815 8.465 85.7195 8.652 85.9945 8.795L85.6975 9.873C85.3455 9.719 84.8615 9.587 84.2455 9.587C82.7385 9.587 81.6495 10.533 81.6495 12.315C81.6495 13.943 82.6065 14.988 84.2345 14.988C84.7845 14.988 85.3565 14.878 85.7085 14.713ZM89.9272 8.465C92.0942 8.465 93.3702 10.104 93.3702 12.216C93.3702 14.702 91.8632 16.121 89.8172 16.121C87.7272 16.121 86.4072 14.526 86.4072 12.348C86.4072 10.071 87.8372 8.465 89.9272 8.465ZM89.8942 9.554C88.5522 9.554 87.8372 10.797 87.8372 12.326C87.8372 13.833 88.5962 15.032 89.8942 15.032C91.2032 15.032 91.9402 13.822 91.9402 12.271C91.9402 10.874 91.2472 9.554 89.8942 9.554ZM95.7803 16H94.5373V8.586H96.0773L97.9913 11.765C98.4863 12.59 98.9153 13.448 99.2563 14.251H99.2783C99.1903 13.261 99.1573 12.304 99.1573 11.171V8.586H100.411V16H99.0143L97.0783 12.744C96.6053 11.93 96.1103 11.017 95.7473 10.181L95.7143 10.192C95.7693 11.149 95.7803 12.128 95.7803 13.349V16ZM101.971 15.978V8.685C102.565 8.586 103.324 8.531 104.127 8.531C105.513 8.531 106.47 8.817 107.152 9.389C107.867 9.972 108.307 10.852 108.307 12.117C108.307 13.437 107.856 14.427 107.152 15.065C106.415 15.736 105.238 16.077 103.797 16.077C103.005 16.077 102.411 16.033 101.971 15.978ZM103.324 9.664V14.966C103.511 14.999 103.797 14.999 104.072 14.999C105.832 15.01 106.877 14.042 106.877 12.161C106.888 10.522 105.942 9.587 104.248 9.587C103.819 9.587 103.511 9.62 103.324 9.664ZM109.48 8.586H110.833V16H109.48V8.586ZM113.799 16V9.719H111.687V8.586H117.286V9.719H115.152V16H113.799ZM118.159 8.586H119.512V16H118.159V8.586ZM124.195 8.465C126.362 8.465 127.638 10.104 127.638 12.216C127.638 14.702 126.131 16.121 124.085 16.121C121.995 16.121 120.675 14.526 120.675 12.348C120.675 10.071 122.105 8.465 124.195 8.465ZM124.162 9.554C122.82 9.554 122.105 10.797 122.105 12.326C122.105 13.833 122.864 15.032 124.162 15.032C125.471 15.032 126.208 13.822 126.208 12.271C126.208 10.874 125.515 9.554 124.162 9.554ZM130.048 16H128.805V8.586H130.345L132.259 11.765C132.754 12.59 133.183 13.448 133.524 14.251H133.546C133.458 13.261 133.425 12.304 133.425 11.171V8.586H134.679V16H133.282L131.346 12.744C130.873 11.93 130.378 11.017 130.015 10.181L129.982 10.192C130.037 11.149 130.048 12.128 130.048 13.349V16ZM135.909 15.648L136.206 14.526C136.646 14.779 137.306 14.999 137.999 14.999C138.868 14.999 139.352 14.592 139.352 13.987C139.352 13.426 138.978 13.096 138.032 12.755C136.811 12.315 136.03 11.666 136.03 10.599C136.03 9.389 137.042 8.465 138.648 8.465C139.451 8.465 140.045 8.641 140.43 8.839L140.1 9.928C139.836 9.785 139.319 9.576 138.626 9.576C137.768 9.576 137.394 10.038 137.394 10.467C137.394 11.039 137.823 11.303 138.813 11.688C140.1 12.172 140.727 12.821 140.727 13.888C140.727 15.076 139.825 16.11 137.911 16.11C137.13 16.11 136.316 15.89 135.909 15.648Z" fill="white"/>
<path d="M148.749 1H12.7273C6.25049 1 1.00003 6.25049 1.00006 12.7273C1.00003 19.5053 6.49471 25 13.2727 25H149.249C155.716 25 160.936 19.7161 160.857 13.25C160.936 6.50773 155.492 1 148.749 1Z" stroke="white"/>
</svg>
