<svg width="224" height="50" viewBox="0 0 224 50" fill="none" xmlns="http://www.w3.org/2000/svg">
<path d="M17.9424 30V20.56H14.2304V18.8H23.7344V20.56H20.0224V30H17.9424ZM31.0604 18.096L28.2764 20.288H26.5484L28.7084 18.096H31.0604ZM32.2604 25.776C32.2604 25.936 32.2444 26.176 32.2284 26.368H25.5244C25.7644 27.616 26.8044 28.416 28.2924 28.416C29.2524 28.416 30.0044 28.112 30.6124 27.488L31.6844 28.72C30.9164 29.632 29.7164 30.112 28.2444 30.112C25.3804 30.112 23.5244 28.272 23.5244 25.728C23.5244 23.184 25.3964 21.36 27.9404 21.36C30.4364 21.36 32.2604 23.104 32.2604 25.776ZM27.9404 22.96C26.6444 22.96 25.7004 23.792 25.5084 25.04H30.3564C30.1964 23.808 29.2524 22.96 27.9404 22.96ZM36.0855 22.704C36.6615 21.808 37.7015 21.36 39.1255 21.36V23.264C38.9495 23.232 38.8055 23.216 38.6615 23.216C37.1415 23.216 36.1815 24.112 36.1815 25.856V30H34.1815V21.456H36.0855V22.704ZM51.6061 21.36C53.6701 21.36 55.1101 22.528 55.1101 25.104V30H53.1101V25.36C53.1101 23.84 52.4061 23.104 51.1901 23.104C49.8781 23.104 48.9661 23.968 48.9661 25.664V30H46.9661V25.36C46.9661 23.84 46.2621 23.104 45.0461 23.104C43.7181 23.104 42.8221 23.968 42.8221 25.664V30H40.8221V21.456H42.7261V22.544C43.3661 21.776 44.3581 21.36 45.5261 21.36C46.7741 21.36 47.8141 21.824 48.4061 22.784C49.0941 21.904 50.2461 21.36 51.6061 21.36ZM58.6739 20.048C57.9379 20.048 57.3939 19.52 57.3939 18.848C57.3939 18.176 57.9379 17.648 58.6739 17.648C59.4099 17.648 59.9539 18.144 59.9539 18.8C59.9539 19.504 59.4259 20.048 58.6739 20.048ZM57.6659 30V21.456H59.6659V30H57.6659ZM67.1389 21.36C69.1869 21.36 70.7069 22.528 70.7069 25.104V30H68.7069V25.36C68.7069 23.84 67.9549 23.104 66.6749 23.104C65.2509 23.104 64.2909 23.968 64.2909 25.68V30H62.2909V21.456H64.1949V22.56C64.8509 21.776 65.8909 21.36 67.1389 21.36ZM77.1621 30.112C74.5381 30.112 72.6181 28.288 72.6181 25.728C72.6181 23.168 74.5381 21.36 77.1621 21.36C79.8181 21.36 81.7221 23.168 81.7221 25.728C81.7221 28.288 79.8181 30.112 77.1621 30.112ZM77.1621 28.4C78.6181 28.4 79.7061 27.36 79.7061 25.728C79.7061 24.096 78.6181 23.056 77.1621 23.056C75.7221 23.056 74.6341 24.096 74.6341 25.728C74.6341 27.36 75.7221 28.4 77.1621 28.4ZM86.2746 30.112C84.8506 30.112 83.4266 29.696 82.6586 29.152L83.4266 27.632C84.1786 28.128 85.3306 28.48 86.4026 28.48C87.6666 28.48 88.1946 28.128 88.1946 27.536C88.1946 25.904 82.9146 27.44 82.9146 24.032C82.9146 22.416 84.3706 21.36 86.6746 21.36C87.8106 21.36 89.1066 21.632 89.8746 22.096L89.1066 23.616C88.2906 23.136 87.4746 22.976 86.6586 22.976C85.4426 22.976 84.8666 23.376 84.8666 23.936C84.8666 25.664 90.1466 24.128 90.1466 27.472C90.1466 29.072 88.6746 30.112 86.2746 30.112ZM102.371 21.456H104.291L100.291 30.688C99.5069 32.624 98.4189 33.216 96.9949 33.216C96.1469 33.216 95.2509 32.928 94.7069 32.432L95.5069 30.96C95.8909 31.328 96.4349 31.552 96.9789 31.552C97.6829 31.552 98.0989 31.216 98.4829 30.368L98.6269 30.032L94.8989 21.456H96.9789L99.6669 27.776L102.371 21.456ZM113.883 30.112C111.179 30.112 109.259 28.288 109.259 25.728C109.259 23.168 111.179 21.36 113.883 21.36C115.547 21.36 116.875 22.048 117.531 23.344L115.995 24.24C115.483 23.424 114.715 23.056 113.867 23.056C112.395 23.056 111.275 24.08 111.275 25.728C111.275 27.392 112.395 28.4 113.867 28.4C114.715 28.4 115.483 28.032 115.995 27.216L117.531 28.112C116.875 29.392 115.547 30.112 113.883 30.112ZM122.975 30.112C120.351 30.112 118.431 28.288 118.431 25.728C118.431 23.168 120.351 21.36 122.975 21.36C125.631 21.36 127.535 23.168 127.535 25.728C127.535 28.288 125.631 30.112 122.975 30.112ZM122.975 28.4C124.431 28.4 125.519 27.36 125.519 25.728C125.519 24.096 124.431 23.056 122.975 23.056C121.535 23.056 120.447 24.096 120.447 25.728C120.447 27.36 121.535 28.4 122.975 28.4ZM134.295 21.36C136.343 21.36 137.863 22.528 137.863 25.104V30H135.863V25.36C135.863 23.84 135.111 23.104 133.831 23.104C132.407 23.104 131.447 23.968 131.447 25.68V30H129.447V21.456H131.351V22.56C132.007 21.776 133.047 21.36 134.295 21.36ZM146.846 18.128H148.846V30H146.926V28.896C146.254 29.712 145.262 30.112 144.094 30.112C141.614 30.112 139.774 28.384 139.774 25.728C139.774 23.072 141.614 21.36 144.094 21.36C145.198 21.36 146.174 21.728 146.846 22.512V18.128ZM144.334 28.4C145.774 28.4 146.878 27.36 146.878 25.728C146.878 24.096 145.774 23.056 144.334 23.056C142.894 23.056 141.79 24.096 141.79 25.728C141.79 27.36 142.894 28.4 144.334 28.4ZM152.471 20.048C151.735 20.048 151.191 19.52 151.191 18.848C151.191 18.176 151.735 17.648 152.471 17.648C153.207 17.648 153.751 18.144 153.751 18.8C153.751 19.504 153.223 20.048 152.471 20.048ZM151.463 30V21.456H153.463V30H151.463ZM160.008 30.112C157.304 30.112 155.384 28.288 155.384 25.728C155.384 23.168 157.304 21.36 160.008 21.36C161.672 21.36 163 22.048 163.656 23.344L162.12 24.24C161.608 23.424 160.84 23.056 159.992 23.056C158.52 23.056 157.4 24.08 157.4 25.728C157.4 27.392 158.52 28.4 159.992 28.4C160.84 28.4 161.608 28.032 162.12 27.216L163.656 28.112C163 29.392 161.672 30.112 160.008 30.112ZM166.393 20.048C165.657 20.048 165.113 19.52 165.113 18.848C165.113 18.176 165.657 17.648 166.393 17.648C167.129 17.648 167.673 18.144 167.673 18.8C167.673 19.504 167.145 20.048 166.393 20.048ZM165.385 30V21.456H167.385V30H165.385ZM173.85 30.112C171.226 30.112 169.306 28.288 169.306 25.728C169.306 23.168 171.226 21.36 173.85 21.36C176.506 21.36 178.41 23.168 178.41 25.728C178.41 28.288 176.506 30.112 173.85 30.112ZM173.85 28.4C175.306 28.4 176.394 27.36 176.394 25.728C176.394 24.096 175.306 23.056 173.85 23.056C172.41 23.056 171.322 24.096 171.322 25.728C171.322 27.36 172.41 28.4 173.85 28.4ZM185.17 21.36C187.218 21.36 188.738 22.528 188.738 25.104V30H186.738V25.36C186.738 23.84 185.986 23.104 184.706 23.104C183.282 23.104 182.322 23.968 182.322 25.68V30H180.322V21.456H182.226V22.56C182.882 21.776 183.922 21.36 185.17 21.36ZM199.385 25.776C199.385 25.936 199.369 26.176 199.353 26.368H192.649C192.889 27.616 193.929 28.416 195.417 28.416C196.377 28.416 197.129 28.112 197.737 27.488L198.809 28.72C198.041 29.632 196.841 30.112 195.369 30.112C192.505 30.112 190.649 28.272 190.649 25.728C190.649 23.184 192.521 21.36 195.065 21.36C197.561 21.36 199.385 23.104 199.385 25.776ZM195.065 22.96C193.769 22.96 192.825 23.792 192.633 25.04H197.481C197.321 23.808 196.377 22.96 195.065 22.96ZM203.947 30.112C202.523 30.112 201.099 29.696 200.331 29.152L201.099 27.632C201.851 28.128 203.003 28.48 204.075 28.48C205.339 28.48 205.867 28.128 205.867 27.536C205.867 25.904 200.587 27.44 200.587 24.032C200.587 22.416 202.043 21.36 204.347 21.36C205.483 21.36 206.779 21.632 207.547 22.096L206.779 23.616C205.963 23.136 205.147 22.976 204.331 22.976C203.115 22.976 202.539 23.376 202.539 23.936C202.539 25.664 207.819 24.128 207.819 27.472C207.819 29.072 206.347 30.112 203.947 30.112Z" fill="white"/>
<path d="M214.331 1H9.00003C4.58174 1 1.00001 4.58174 1.00003 9.00003L1.00008 24.4545L1.00003 41C1.00001 45.4183 4.58173 49 9.00002 49H214.328C218.772 49 222.365 45.3772 222.328 40.9327L222.198 25.5L222.33 9.06452C222.366 4.62117 218.774 1 214.331 1Z" stroke="white" stroke-width="2"/>
</svg>
