<svg width="224" height="50" viewBox="0 0 224 50" fill="none" xmlns="http://www.w3.org/2000/svg">
<path d="M23.3653 27.76V24.272H25.3333V28.736C24.1653 29.68 22.5333 30.16 20.9493 30.16C17.4773 30.16 14.9173 27.744 14.9173 24.4C14.9173 21.056 17.4773 18.64 20.9813 18.64C22.8533 18.64 24.4213 19.264 25.4773 20.464L24.1653 21.744C23.2853 20.864 22.2773 20.464 21.0773 20.464C18.6933 20.464 17.0133 22.08 17.0133 24.4C17.0133 26.672 18.6933 28.336 21.0613 28.336C21.8613 28.336 22.6453 28.176 23.3653 27.76ZM35.9166 25.776C35.9166 25.936 35.9006 26.176 35.8846 26.368H29.1806C29.4206 27.616 30.4606 28.416 31.9486 28.416C32.9086 28.416 33.6606 28.112 34.2686 27.488L35.3406 28.72C34.5726 29.632 33.3726 30.112 31.9006 30.112C29.0366 30.112 27.1806 28.272 27.1806 25.728C27.1806 23.184 29.0526 21.36 31.5966 21.36C34.0926 21.36 35.9166 23.104 35.9166 25.776ZM31.5966 22.96C30.3006 22.96 29.3566 23.792 29.1646 25.04H34.0126C33.8526 23.808 32.9086 22.96 31.5966 22.96ZM40.4778 30.112C39.0538 30.112 37.6298 29.696 36.8618 29.152L37.6298 27.632C38.3818 28.128 39.5338 28.48 40.6058 28.48C41.8698 28.48 42.3978 28.128 42.3978 27.536C42.3978 25.904 37.1178 27.44 37.1178 24.032C37.1178 22.416 38.5738 21.36 40.8778 21.36C42.0138 21.36 43.3098 21.632 44.0778 22.096L43.3098 23.616C42.4938 23.136 41.6778 22.976 40.8618 22.976C39.6458 22.976 39.0698 23.376 39.0698 23.936C39.0698 25.664 44.3498 24.128 44.3498 27.472C44.3498 29.072 42.8778 30.112 40.4778 30.112ZM49.9921 30.112C47.2881 30.112 45.3681 28.288 45.3681 25.728C45.3681 23.168 47.2881 21.36 49.9921 21.36C51.6561 21.36 52.9841 22.048 53.6401 23.344L52.1041 24.24C51.5921 23.424 50.8241 23.056 49.9761 23.056C48.5041 23.056 47.3841 24.08 47.3841 25.728C47.3841 27.392 48.5041 28.4 49.9761 28.4C50.8241 28.4 51.5921 28.032 52.1041 27.216L53.6401 28.112C52.9841 29.392 51.6561 30.112 49.9921 30.112ZM60.1389 21.36C62.1869 21.36 63.7069 22.528 63.7069 25.104V30H61.7069V25.36C61.7069 23.84 60.9549 23.104 59.6749 23.104C58.2509 23.104 57.2909 23.968 57.2909 25.68V30H55.2909V18.128H57.2909V22.448C57.9469 21.744 58.9549 21.36 60.1389 21.36ZM68.132 20.112C67.588 20.112 67.172 19.712 67.172 19.152C67.172 18.576 67.588 18.176 68.132 18.176C68.676 18.176 69.092 18.576 69.092 19.152C69.092 19.712 68.676 20.112 68.132 20.112ZM71.236 20.112C70.692 20.112 70.276 19.712 70.276 19.152C70.276 18.576 70.692 18.176 71.236 18.176C71.78 18.176 72.196 18.576 72.196 19.152C72.196 19.712 71.78 20.112 71.236 20.112ZM69.508 21.36C71.972 21.36 73.396 22.528 73.396 24.992V30H71.508V28.96C71.028 29.696 70.1 30.112 68.82 30.112C66.868 30.112 65.636 29.04 65.636 27.552C65.636 26.128 66.596 25.008 69.188 25.008H71.396V24.88C71.396 23.712 70.692 23.024 69.268 23.024C68.308 23.024 67.316 23.344 66.676 23.872L65.892 22.416C66.804 21.712 68.132 21.36 69.508 21.36ZM69.236 28.656C70.212 28.656 71.06 28.208 71.396 27.328V26.336H69.332C67.972 26.336 67.604 26.848 67.604 27.472C67.604 28.192 68.212 28.656 69.236 28.656ZM79.4348 19.632C78.6028 19.632 78.1708 20.096 78.1708 21.008V21.52H80.5228V23.12H78.2348V30H76.2348V23.12H74.8268V21.52H76.2348V20.976C76.2348 19.184 77.3068 18.016 79.2908 18.016C79.9788 18.016 80.6508 18.16 81.0988 18.48L80.5388 19.984C80.2348 19.776 79.8508 19.632 79.4348 19.632ZM86.445 28.112L87.005 29.536C86.525 29.92 85.805 30.112 85.085 30.112C83.213 30.112 82.141 29.12 82.141 27.232V23.12H80.733V21.52H82.141V19.568H84.141V21.52H86.429V23.12H84.141V27.184C84.141 28.016 84.557 28.464 85.325 28.464C85.741 28.464 86.141 28.352 86.445 28.112ZM91.2903 30.112C89.8663 30.112 88.4423 29.696 87.6743 29.152L88.4423 27.632C89.1943 28.128 90.3463 28.48 91.4183 28.48C92.6823 28.48 93.2103 28.128 93.2103 27.536C93.2103 25.904 87.9303 27.44 87.9303 24.032C87.9303 22.416 89.3863 21.36 91.6903 21.36C92.8263 21.36 94.1223 21.632 94.8903 22.096L94.1223 23.616C93.3063 23.136 92.4903 22.976 91.6743 22.976C90.4583 22.976 89.8823 23.376 89.8823 23.936C89.8823 25.664 95.1623 24.128 95.1623 27.472C95.1623 29.072 93.6903 30.112 91.2903 30.112ZM101.621 21.36C104.117 21.36 105.957 23.072 105.957 25.728C105.957 28.384 104.117 30.112 101.621 30.112C100.453 30.112 99.4606 29.712 98.7886 28.896V30H96.8846V18.128H98.8846V22.496C99.5726 21.728 100.533 21.36 101.621 21.36ZM101.397 28.4C102.837 28.4 103.925 27.36 103.925 25.728C103.925 24.096 102.837 23.056 101.397 23.056C99.9566 23.056 98.8526 24.096 98.8526 25.728C98.8526 27.36 99.9566 28.4 101.397 28.4ZM115.885 25.776C115.885 25.936 115.869 26.176 115.853 26.368H109.149C109.389 27.616 110.429 28.416 111.917 28.416C112.877 28.416 113.629 28.112 114.237 27.488L115.309 28.72C114.541 29.632 113.341 30.112 111.869 30.112C109.005 30.112 107.149 28.272 107.149 25.728C107.149 23.184 109.021 21.36 111.565 21.36C114.061 21.36 115.885 23.104 115.885 25.776ZM111.565 22.96C110.269 22.96 109.325 23.792 109.133 25.04H113.981C113.821 23.808 112.877 22.96 111.565 22.96ZM124.175 18.128H126.175V30H124.255V28.896C123.583 29.712 122.591 30.112 121.423 30.112C118.943 30.112 117.103 28.384 117.103 25.728C117.103 23.072 118.943 21.36 121.423 21.36C122.527 21.36 123.503 21.728 124.175 22.512V18.128ZM121.663 28.4C123.103 28.4 124.207 27.36 124.207 25.728C124.207 24.096 123.103 23.056 121.663 23.056C120.223 23.056 119.119 24.096 119.119 25.728C119.119 27.36 120.223 28.4 121.663 28.4ZM129.799 20.048C129.063 20.048 128.519 19.52 128.519 18.848C128.519 18.176 129.063 17.648 129.799 17.648C130.535 17.648 131.079 18.144 131.079 18.8C131.079 19.504 130.551 20.048 129.799 20.048ZM128.791 30V21.456H130.791V30H128.791ZM138.264 21.36C140.312 21.36 141.832 22.528 141.832 25.104V30H139.832V25.36C139.832 23.84 139.08 23.104 137.8 23.104C136.376 23.104 135.416 23.968 135.416 25.68V30H133.416V21.456H135.32V22.56C135.976 21.776 137.016 21.36 138.264 21.36ZM151.023 21.456H152.927V28.704C152.927 31.808 151.311 33.216 148.319 33.216C146.719 33.216 145.135 32.8 144.159 32L145.055 30.496C145.807 31.12 147.023 31.52 148.207 31.52C150.095 31.52 150.927 30.656 150.927 28.928V28.48C150.223 29.248 149.215 29.616 148.063 29.616C145.615 29.616 143.743 27.952 143.743 25.472C143.743 22.992 145.615 21.36 148.063 21.36C149.263 21.36 150.319 21.744 151.023 22.592V21.456ZM148.367 27.92C149.871 27.92 150.959 26.928 150.959 25.472C150.959 24.032 149.871 23.056 148.367 23.056C146.847 23.056 145.759 24.032 145.759 25.472C145.759 26.928 146.847 27.92 148.367 27.92ZM161.829 21.456H163.829V30H161.925V28.912C161.285 29.696 160.277 30.112 159.173 30.112C156.981 30.112 155.493 28.912 155.493 26.336V21.456H157.493V26.064C157.493 27.616 158.229 28.352 159.493 28.352C160.885 28.352 161.829 27.488 161.829 25.776V21.456ZM171.295 21.36C173.343 21.36 174.863 22.528 174.863 25.104V30H172.863V25.36C172.863 23.84 172.111 23.104 170.831 23.104C169.407 23.104 168.447 23.968 168.447 25.68V30H166.447V21.456H168.351V22.56C169.007 21.776 170.047 21.36 171.295 21.36ZM184.054 21.456H185.958V28.704C185.958 31.808 184.342 33.216 181.35 33.216C179.75 33.216 178.166 32.8 177.19 32L178.086 30.496C178.838 31.12 180.054 31.52 181.238 31.52C183.126 31.52 183.958 30.656 183.958 28.928V28.48C183.254 29.248 182.246 29.616 181.094 29.616C178.646 29.616 176.774 27.952 176.774 25.472C176.774 22.992 178.646 21.36 181.094 21.36C182.294 21.36 183.35 21.744 184.054 22.592V21.456ZM181.398 27.92C182.902 27.92 183.99 26.928 183.99 25.472C183.99 24.032 182.902 23.056 181.398 23.056C179.878 23.056 178.79 24.032 178.79 25.472C178.79 26.928 179.878 27.92 181.398 27.92ZM196.62 25.776C196.62 25.936 196.604 26.176 196.588 26.368H189.884C190.124 27.616 191.164 28.416 192.652 28.416C193.612 28.416 194.364 28.112 194.972 27.488L196.044 28.72C195.276 29.632 194.076 30.112 192.604 30.112C189.74 30.112 187.884 28.272 187.884 25.728C187.884 23.184 189.756 21.36 192.3 21.36C194.796 21.36 196.62 23.104 196.62 25.776ZM192.3 22.96C191.004 22.96 190.06 23.792 189.868 25.04H194.716C194.556 23.808 193.612 22.96 192.3 22.96ZM203.389 21.36C205.437 21.36 206.957 22.528 206.957 25.104V30H204.957V25.36C204.957 23.84 204.205 23.104 202.925 23.104C201.501 23.104 200.541 23.968 200.541 25.68V30H198.541V21.456H200.445V22.56C201.101 21.776 202.141 21.36 203.389 21.36Z" fill="white"/>
<path d="M214.331 1H9.00003C4.58174 1 1.00001 4.58174 1.00003 9.00003L1.00008 24.4545L1.00003 41C1.00001 45.4183 4.58173 49 9.00002 49H214.328C218.772 49 222.365 45.3772 222.328 40.9327L222.198 25.5L222.33 9.06452C222.366 4.62117 218.774 1 214.331 1Z" stroke="white" stroke-width="2"/>
</svg>
